<svg viewBox="0 0 256 256" xmlns="http://www.w3.org/2000/svg">
  <!-- Left top blue wing -->
  <path d="M 85 60 Q 75 80 80 110 Q 90 120 105 115 Q 100 90 105 70 Q 100 55 85 60 Z" fill="#003D7A"/>
  
  <!-- Left bottom blue wing -->
  <path d="M 75 130 Q 65 150 75 180 Q 90 185 105 170 Q 100 150 105 120 Q 95 115 75 130 Z" fill="#003D7A"/>
  
  <!-- Right top orange wing -->
  <path d="M 171 60 Q 181 80 176 110 Q 166 120 151 115 Q 156 90 151 70 Q 156 55 171 60 Z" fill="#FF6B35"/>
  
  <!-- Right bottom orange wing -->
  <path d="M 181 130 Q 191 150 181 180 Q 166 185 151 170 Q 156 150 151 120 Q 161 115 181 130 Z" fill="#FF6B35"/>
  
  <!-- Center green accent -->
  <path d="M 120 140 Q 128 150 128 165 Q 128 175 120 180 Q 112 175 112 165 Q 112 150 120 140 Z" fill="#4CAF50"/>
  
  <!-- Top orange arrow -->
  <path d="M 128 30 L 140 60 L 128 55 L 116 60 Z" fill="#FF9F43"/>
</svg>
